<?xml version="1.0" encoding="UTF-8" standalone="no"?>
<svg
   xmlns:dc="http://purl.org/dc/elements/1.1/"
   xmlns:cc="http://creativecommons.org/ns#"
   xmlns:rdf="http://www.w3.org/1999/02/22-rdf-syntax-ns#"
   xmlns:svg="http://www.w3.org/2000/svg"
   xmlns="http://www.w3.org/2000/svg"
   xmlns:sodipodi="http://sodipodi.sourceforge.net/DTD/sodipodi-0.dtd"
   xmlns:inkscape="http://www.inkscape.org/namespaces/inkscape"
   version="1.1"
   id="Layer_1"
   x="0px"
   y="0px"
   viewBox="0 0 32 32"
   xml:space="preserve"
   sodipodi:docname="print.svg"
   width="32"
   height="32"
   inkscape:version="0.92.4 (5da689c313, 2019-01-14)"><metadata
     id="metadata11"><rdf:RDF><cc:Work
         rdf:about=""><dc:format>image/svg+xml</dc:format><dc:type
           rdf:resource="http://purl.org/dc/dcmitype/StillImage" /><dc:title></dc:title></cc:Work></rdf:RDF></metadata><defs
     id="defs9"><filter
       inkscape:menu-tooltip="In and out glow with a possible offset and colorizable flood"
       inkscape:menu="Shadows and Glows"
       inkscape:label="Cutout Glow"
       style="color-interpolation-filters:sRGB;"
       id="filter1043"><feOffset
         dy="3"
         dx="3"
         id="feOffset1033" /><feGaussianBlur
         stdDeviation="3"
         result="blur"
         id="feGaussianBlur1035" /><feFlood
         flood-color="rgb(0,0,0)"
         flood-opacity="1"
         result="flood"
         id="feFlood1037" /><feComposite
         in="flood"
         in2="SourceGraphic"
         operator="in"
         result="composite"
         id="feComposite1039" /><feBlend
         in="blur"
         in2="composite"
         mode="normal"
         id="feBlend1041" /></filter><filter
       inkscape:menu-tooltip="In and out glow with a possible offset and colorizable flood"
       inkscape:menu="Shadows and Glows"
       inkscape:label="Cutout Glow"
       style="color-interpolation-filters:sRGB;"
       id="filter1057"><feOffset
         dy="3"
         dx="3"
         id="feOffset1047" /><feGaussianBlur
         stdDeviation="3"
         result="blur"
         id="feGaussianBlur1049" /><feFlood
         flood-color="rgb(0,0,0)"
         flood-opacity="1"
         result="flood"
         id="feFlood1051" /><feComposite
         in="flood"
         in2="SourceGraphic"
         operator="in"
         result="composite"
         id="feComposite1053" /><feBlend
         in="blur"
         in2="composite"
         mode="normal"
         id="feBlend1055" /></filter></defs><sodipodi:namedview
     pagecolor="#ffffff"
     bordercolor="#666666"
     borderopacity="1"
     objecttolerance="10"
     gridtolerance="10"
     guidetolerance="10"
     inkscape:pageopacity="0"
     inkscape:pageshadow="2"
     inkscape:window-width="1920"
     inkscape:window-height="1137"
     id="namedview7"
     showgrid="false"
     inkscape:showpageshadow="false"
     showborder="false"
     inkscape:pagecheckerboard="true"
     inkscape:zoom="0.5"
     inkscape:cx="11.069883"
     inkscape:cy="25.638827"
     inkscape:window-x="1912"
     inkscape:window-y="-8"
     inkscape:window-maximized="1"
     inkscape:current-layer="Layer_1" /><style
     id="style929"
     type="text/css">.st0{fill-rule:evenodd;clip-rule:evenodd;}</style><path
     style="fill:#ffffff;fill-opacity:1;fill-rule:nonzero;stroke:none;stroke-width:0.40000001;stroke-linecap:round;stroke-linejoin:round;stroke-miterlimit:4;stroke-dasharray:none;stroke-dashoffset:0;stroke-opacity:1"
     d="M 23.308594 24.710938 C 22.636187 25.685033 21.848159 26.653117 20.943359 27.615234 C 20.03856 28.577352 19.017857 29.534238 17.882812 30.484375 C 18.238808 30.440095 18.59153 30.38202 18.939453 30.3125 C 19.888947 30.12266 20.804022 29.839717 21.685547 29.462891 C 22.581655 29.077465 23.415873 28.624874 24.1875 28.107422 C 24.960689 27.588668 25.677333 26.999355 26.335938 26.337891 L 26.337891 26.335938 C 26.847539 25.828326 27.315487 25.286465 27.740234 24.710938 L 23.308594 24.710938 z "
     id="path1096" /><path
     style="fill:#ffffff;fill-opacity:1;fill-rule:nonzero;stroke:none;stroke-width:0.40000001;stroke-linecap:round;stroke-linejoin:round;stroke-miterlimit:4;stroke-dasharray:none;stroke-dashoffset:0;stroke-opacity:1"
     d="M 16.701172 24.710938 L 16.701172 29.646484 C 18.69209 28.010274 20.322505 26.36486 21.583984 24.710938 L 16.701172 24.710938 z "
     id="path1094" /><path
     style="fill:#ffffff;fill-opacity:1;fill-rule:nonzero;stroke:none;stroke-width:0.40000001;stroke-linecap:round;stroke-linejoin:round;stroke-miterlimit:4;stroke-dasharray:none;stroke-dashoffset:0;stroke-opacity:1"
     d="M 10.416016 24.710938 C 11.677234 26.36486 13.30739 28.010012 15.298828 29.646484 L 15.298828 24.710938 L 10.416016 24.710938 z "
     id="path1092" /><path
     style="fill:#ffffff;fill-opacity:1;fill-rule:nonzero;stroke:none;stroke-width:0.40000001;stroke-linecap:round;stroke-linejoin:round;stroke-miterlimit:4;stroke-dasharray:none;stroke-dashoffset:0;stroke-opacity:1"
     d="M 4.2617188 24.710938 C 4.6864652 25.286465 5.1527262 25.828381 5.6621094 26.335938 L 5.6640625 26.337891 C 6.3229273 26.999355 7.0395708 27.588668 7.8125 28.107422 C 8.5838665 28.624874 9.4180842 29.077471 10.314453 29.462891 C 10.325653 29.467891 10.336726 29.470962 10.347656 29.476562 C 11.218763 29.846097 12.124724 30.12474 13.0625 30.3125 C 13.410422 30.38204 13.761191 30.440355 14.117188 30.484375 L 14.117188 30.482422 C 12.982273 29.532415 11.96144 28.57732 11.056641 27.615234 C 10.151841 26.653149 9.3639432 25.685034 8.6914062 24.710938 L 4.2617188 24.710938 z "
     id="path1090" /><path
     style="fill:#ffffff;fill-opacity:1;fill-rule:nonzero;stroke:none;stroke-width:0.40000001;stroke-linecap:round;stroke-linejoin:round;stroke-miterlimit:4;stroke-dasharray:none;stroke-dashoffset:0;stroke-opacity:1"
     d="M 26.183594 16.701172 C 26.143619 17.817583 25.957004 18.926196 25.625 20.027344 C 25.292996 21.128491 24.814724 22.222517 24.193359 23.308594 L 28.507812 23.308594 C 28.555212 23.308594 28.60117 23.313446 28.646484 23.322266 C 28.944928 22.801949 29.217055 22.256124 29.462891 21.685547 C 29.467491 21.674087 29.472716 21.663274 29.478516 21.652344 C 29.847784 20.781232 30.124736 19.875008 30.3125 18.9375 C 30.45808 18.210151 30.547917 17.465241 30.582031 16.701172 L 26.183594 16.701172 z "
     id="path1088" /><path
     style="fill:#ffffff;fill-opacity:1;fill-rule:nonzero;stroke:none;stroke-width:0.40000001;stroke-linecap:round;stroke-linejoin:round;stroke-miterlimit:4;stroke-dasharray:none;stroke-dashoffset:0;stroke-opacity:1"
     d="M 16.701172 16.701172 L 16.701172 23.308594 L 22.564453 23.308594 C 23.258214 22.215356 23.79127 21.116838 24.162109 20.015625 C 24.532949 18.914412 24.740624 17.810165 24.785156 16.701172 L 16.701172 16.701172 z "
     id="path1086" /><path
     style="fill:#ffffff;fill-opacity:1;fill-rule:nonzero;stroke:none;stroke-width:0.40000001;stroke-linecap:round;stroke-linejoin:round;stroke-miterlimit:4;stroke-dasharray:none;stroke-dashoffset:0;stroke-opacity:1"
     d="M 7.2148438 16.701172 C 7.2592453 17.810295 7.4670838 18.916397 7.8378906 20.017578 C 8.2086974 21.118759 8.7434784 22.215356 9.4375 23.308594 L 15.298828 23.308594 L 15.298828 16.701172 L 7.2148438 16.701172 z "
     id="path1084" /><path
     style="fill:#ffffff;fill-opacity:1;fill-rule:nonzero;stroke:none;stroke-width:0.40000001;stroke-linecap:round;stroke-linejoin:round;stroke-miterlimit:4;stroke-dasharray:none;stroke-dashoffset:0;stroke-opacity:1"
     d="M 1.4179688 16.701172 C 1.4518228 17.465241 1.5419248 18.210151 1.6875 18.9375 C 1.877346 19.886987 2.160541 20.80403 2.5371094 21.685547 L 2.5390625 21.685547 C 2.7825561 22.251176 3.0518182 22.792444 3.3476562 23.308594 L 7.8066406 23.308594 C 7.1854067 22.222517 6.7069714 21.128492 6.375 20.027344 C 6.0430286 18.926196 5.8561205 17.817587 5.8164062 16.701172 L 1.4179688 16.701172 z "
     id="path1082" /><path
     style="fill:#ffffff;fill-opacity:1;fill-rule:nonzero;stroke:none;stroke-width:0.40000001;stroke-linecap:round;stroke-linejoin:round;stroke-miterlimit:4;stroke-dasharray:none;stroke-dashoffset:0;stroke-opacity:1"
     d="M 23.966797 8.6914062 C 24.617328 9.8000087 25.123855 10.904679 25.488281 12.005859 C 25.852708 13.10704 26.074869 14.205069 26.15625 15.298828 L 30.582031 15.298828 C 30.547921 14.534759 30.457816 13.78985 30.3125 13.0625 C 30.122394 12.113014 29.839459 11.195971 29.462891 10.314453 C 29.219355 9.7485633 28.950396 9.2075558 28.654297 8.6914062 L 23.966797 8.6914062 z "
     id="path1080" /><path
     style="fill:#ffffff;fill-opacity:1;fill-rule:nonzero;stroke:none;stroke-width:0.40000001;stroke-linecap:round;stroke-linejoin:round;stroke-miterlimit:4;stroke-dasharray:none;stroke-dashoffset:0;stroke-opacity:1"
     d="M 16.701172 8.6914062 L 16.701172 15.298828 L 24.753906 15.298828 C 24.662889 14.213923 24.417585 13.120679 24.013672 12.019531 C 23.609759 10.918383 23.048058 9.8089933 22.328125 8.6914062 L 16.701172 8.6914062 z "
     id="path1078" /><path
     style="fill:#ffffff;fill-opacity:1;fill-rule:nonzero;stroke:none;stroke-width:0.40000001;stroke-linecap:round;stroke-linejoin:round;stroke-miterlimit:4;stroke-dasharray:none;stroke-dashoffset:0;stroke-opacity:1"
     d="M 3.3476562 8.6914062 C 3.0518183 9.2075559 2.7825561 9.7485633 2.5390625 10.314453 C 2.5341025 10.325653 2.5286575 10.336986 2.5234375 10.347656 C 2.1539005 11.219018 1.8752634 12.124993 1.6875 13.0625 C 1.541926 13.78985 1.4518233 14.53502 1.4179688 15.298828 L 5.84375 15.298828 C 5.925132 14.205069 6.147325 13.10704 6.5117188 12.005859 C 6.8761125 10.904678 7.3828021 9.8000087 8.0332031 8.6914062 L 3.3476562 8.6914062 z "
     id="path1074" /><path
     style="fill:#ffffff;fill-opacity:1;fill-rule:nonzero;stroke:none;stroke-width:0.40000001;stroke-linecap:round;stroke-linejoin:round;stroke-miterlimit:4;stroke-dasharray:none;stroke-dashoffset:0;stroke-opacity:1"
     d="M 16.701172 2.4140625 L 16.701172 7.2890625 L 21.34375 7.2890625 C 20.123939 5.6807165 18.578026 4.0565245 16.701172 2.4140625 z "
     id="path1072" /><path
     style="fill:#ffffff;fill-opacity:1;fill-rule:nonzero;stroke:none;stroke-width:0.40000001;stroke-linecap:round;stroke-linejoin:round;stroke-miterlimit:4;stroke-dasharray:none;stroke-dashoffset:0;stroke-opacity:1"
     d="M 15.298828 2.4121094 C 13.421975 4.0545704 11.876061 5.6807165 10.65625 7.2890625 L 15.298828 7.2890625 L 15.298828 2.4121094 z "
     id="path1070" /><path
     style="fill:#ffffff;fill-opacity:1;fill-rule:nonzero;stroke:none;stroke-width:0.40000001;stroke-linecap:round;stroke-linejoin:round;stroke-miterlimit:4;stroke-dasharray:none;stroke-dashoffset:0;stroke-opacity:1"
     d="M 14.216797 1.5058594 C 13.827208 1.5514294 13.442194 1.611458 13.0625 1.6875 C 12.112745 1.877346 11.195977 2.1605444 10.314453 2.5371094 C 9.4180847 2.9227904 8.5838665 3.3748651 7.8125 3.8925781 C 7.0395709 4.4113321 6.3229273 5.0009064 5.6640625 5.6621094 L 5.6621094 5.6640625 C 5.1527216 6.1718725 4.6864651 6.7132775 4.2617188 7.2890625 L 8.9316406 7.2890625 C 10.261871 5.3721205 12.02197 3.4451984 14.216797 1.5058594 z "
     id="path1068" /><path
     style="fill:#ffffff;fill-opacity:1;fill-rule:nonzero;stroke:none;stroke-width:0.40000001;stroke-linecap:round;stroke-linejoin:round;stroke-miterlimit:4;stroke-dasharray:none;stroke-dashoffset:0;stroke-opacity:1"
     d="M 17.783203 1.5039062 C 19.97803 3.4432443 21.737869 5.3721195 23.068359 7.2890625 L 27.740234 7.2890625 C 27.315488 6.7135375 26.847534 6.1716185 26.337891 5.6640625 L 26.335938 5.6621094 C 25.677349 5.0006514 24.96069 4.4113331 24.1875 3.8925781 C 23.415874 3.3748661 22.581655 2.9227894 21.685547 2.5371094 C 21.674347 2.5324094 21.663014 2.5288975 21.652344 2.5234375 C 20.780976 2.1541585 19.875015 1.875002 18.9375 1.6875 C 18.557806 1.61146 18.172793 1.5497403 17.783203 1.5039062 z "
     id="path1066" /><path
     id="path879"
     style="fill:#2a7fff;stroke:#2a7fff;stroke-width:0.4;stroke-miterlimit:4;stroke-dasharray:none"
     d="m 28.506975,23.308264 c 0.0474,0 0.09349,0.005 0.138804,0.01382 0.298444,-0.520317 0.570584,-1.066415 0.81642,-1.636992 0.0046,-0.01146 0.0096,-0.0224 0.0154,-0.03333 0.369268,-0.871112 0.647918,-1.775807 0.835682,-2.713315 0.14558,-0.727349 0.23542,-1.473189 0.269534,-2.237258 H 26.1835 c -0.07995,2.232823 -0.746626,4.434924 -1.989355,6.607077 z m -0.766939,1.402615 h -4.430801 c -1.344813,1.948192 -3.156561,3.87243 -5.426649,5.772704 0.355995,-0.04428 0.708084,-0.10104 1.056007,-0.17056 0.949494,-0.18984 1.865654,-0.47318 2.747179,-0.850006 l -5.21e-4,-0.001 c 0.896108,-0.385426 1.730757,-0.836472 2.502384,-1.353924 0.773189,-0.518754 1.489868,-1.108082 2.148472,-1.769546 l 0.0026,-0.0026 v 0 c 0.509648,-0.507611 0.976582,-1.049541 1.401329,-1.625068 z M 14.117422,30.483323 C 11.847593,28.583309 10.035846,26.659071 8.690772,24.710879 H 4.2607528 c 0.4247464,0.575527 0.8914208,1.117457 1.400804,1.625014 l 0.00262,0.003 v -2.6e-4 c 0.6588648,0.661464 1.3755428,1.250792 2.148472,1.769546 0.7713665,0.517452 1.6060153,0.968498 2.5023842,1.353918 0.0112,0.005 0.0224,0.0098 0.03333,0.0154 0.871107,0.369534 1.775809,0.647922 2.713585,0.835682 0.347922,0.06954 0.69949,0.1263 1.055486,0.17032 z M 3.3469363,23.308264 H 7.8058619 C 6.563394,21.136111 5.8964564,18.93401 5.817028,16.701179 H 1.4179991 c 0.033854,0.764069 0.1237,1.509648 0.2692752,2.236997 0.189846,0.949487 0.4734452,1.865641 0.8500136,2.747158 l 0.00104,-2.6e-4 c 0.2434936,0.565629 0.5127688,1.10704 0.8086068,1.62319 z m -1.9289372,-8.00944 h 4.4263731 c 0.162764,-2.187518 0.888556,-4.38988 2.189358,-6.607085 H 3.3469363 c -0.295838,0.5161496 -0.5651132,1.0575602 -0.8086068,1.62345 -0.00496,0.0112 -0.01016,0.0224 -0.01538,0.03307 -0.369537,0.871362 -0.647927,1.776057 -0.8356904,2.713564 -0.145574,0.72735 -0.2354206,1.47319 -0.2692752,2.236998 z M 4.2607528,7.289383 H 8.9321821 C 10.262412,5.372441 12.021294,3.4443 14.216121,1.504961 13.826532,1.550531 13.44189,1.611213 13.062196,1.687255 12.112441,1.877101 11.196541,2.160697 10.315017,2.537262 l 2.6e-4,7.81e-4 C 9.4189086,2.923724 8.5842598,3.374508 7.8128933,3.892221 7.0399642,4.410975 6.3232862,5.000303 5.6644214,5.661506 l -0.00286,0.0026 v 0 C 5.1521736,6.171916 4.6854992,6.713588 4.2607528,7.289373 Z M 17.783886,1.504701 c 2.194827,1.939338 3.95371,3.867479 5.2842,5.784422 h 4.671689 C 27.315029,6.713598 26.848094,6.171666 26.338451,5.66411 l -0.0026,-0.0026 v 0 C 25.677262,5.000052 24.960584,4.410985 24.187394,3.89223 23.415768,3.374518 22.581119,2.923733 21.685011,2.538053 c -0.0112,-0.0047 -0.0224,-0.0099 -0.03307,-0.01536 C 20.780573,2.153414 19.875871,1.874766 18.938356,1.687264 18.558662,1.611224 18.1735,1.550544 17.78391,1.50471 Z m 10.869446,7.187038 h -4.687055 c 1.301063,2.217205 2.026856,4.419567 2.189619,6.607085 h 4.426633 c -0.03411,-0.764069 -0.12422,-1.509648 -0.269536,-2.236998 -0.190106,-0.949486 -0.473444,-1.86564 -0.850012,-2.747158 l -10e-4,5.21e-4 C 29.218445,9.7492992 28.949431,9.2078886 28.653332,8.691739 Z M 12.788233,0.311983 C 13.827834,0.103908 14.898684,1e-6 16.000264,1e-6 c 1.10158,0 2.17217,0.103906 3.21177,0.311982 1.024496,0.205209 2.020345,0.513025 2.987809,0.923705 0.01328,0.0047 0.02604,0.0096 0.03854,0.0151 0.964338,0.415108 1.874248,0.90756 2.726866,1.480221 0.851055,0.570838 1.638308,1.217978 2.360976,1.943245 0.725272,0.722662 1.372417,1.510168 1.943,2.360696 0.572146,0.852872 1.06512,1.762515 1.480232,2.727366 l -0.001,2.604e-4 0.001,0.00234 c 0.418498,0.9786536 0.731522,1.9864746 0.938818,3.0232016 0.208076,1.039592 0.311724,2.110434 0.311724,3.212006 0,1.101571 -0.10364,2.172674 -0.311724,3.212265 -0.20495,1.023967 -0.51329,2.020329 -0.923712,2.987525 -0.0046,0.01304 -0.0096,0.02578 -0.0154,0.03828 -0.415078,0.964859 -0.907794,1.874241 -1.480198,2.727113 -0.570583,0.850788 -1.217728,1.638034 -1.943001,2.360696 -0.722667,0.725266 -1.51018,1.372668 -2.360975,1.943246 -0.852357,0.5724 -1.762528,1.065372 -2.726866,1.480218 l -5.21e-4,-10e-4 -0.0026,10e-4 c -0.978662,0.418234 -1.986751,0.731258 -3.023226,0.93855 -1.0396,0.208078 -2.110451,0.311982 -3.21177,0.311982 -1.10132,0 -2.172431,-0.10392 -3.212031,-0.311982 -1.024235,-0.20495 -2.020345,-0.513022 -2.9880688,-0.923442 -0.01276,-0.005 -0.025521,-0.0096 -0.038282,-0.0154 C 8.7967566,30.334327 7.887367,29.841615 7.0344888,29.268955 6.1839542,28.698379 5.3964416,28.050977 4.6737736,27.325711 3.9485017,26.603049 3.3013559,25.815544 2.7307739,24.965014 2.1583689,24.112404 1.6656527,23.202761 1.2505417,22.237909 l 0.00104,-5.2e-4 -0.00104,-0.0023 C 0.8323059,21.256432 0.5192801,20.248611 0.3119851,19.211884 0.1041697,18.172552 9e-7,17.10171 9e-7,15.999878 c 0,-1.101311 0.104168,-2.172413 0.3122446,-3.212005 0.2049504,-1.024227 0.513029,-2.020329 0.9234522,-2.9877848 0.00468,-0.01276 0.00964,-0.025782 0.0151,-0.038282 C 1.6659085,8.796915 2.1583643,7.887272 2.7310297,7.0344 3.3018723,6.183872 3.9490179,5.396366 4.6740294,4.673704 5.3966976,3.948437 6.18421,3.301297 7.0347446,2.730459 7.8876228,2.158058 8.7972728,1.665346 9.7618716,1.250238 l 2.604e-4,0.001 0.00234,-0.001 C 10.743405,0.83256 11.751494,0.519537 12.788229,0.311983 Z m 3.913344,2.101579 v 4.875821 h 4.642262 C 20.124028,5.681037 18.578431,4.056024 16.701577,2.413562 Z m 0,6.278177 v 6.607085 h 8.052734 c -0.182035,-2.16981 -0.986735,-4.371911 -2.426602,-6.607085 z m 0,8.00944 v 6.607085 h 5.862074 c 1.387522,-2.186476 2.132586,-4.389098 2.22165,-6.607085 z m 0,8.0097 v 4.935456 c 1.990918,-1.63621 3.620371,-3.281534 4.88185,-4.935456 z m -1.402626,4.935978 v -4.935978 h -4.88211 c 1.261218,1.653922 2.890672,3.299506 4.88211,4.935978 z m 0,-6.338593 V 16.701179 H 7.2152274 c 0.088803,2.218247 0.8336072,4.420609 2.2216503,6.607085 z m 0,-8.00944 V 8.691739 H 9.672819 c -1.4398669,2.235174 -2.2445672,4.437536 -2.4268618,6.607085 z m 0,-8.009441 V 2.413042 C 13.422098,4.055503 11.87624,5.681037 10.656429,7.289383 Z M 9.671875,8.6914062 C 8.9519416,9.8089933 8.3922265,10.91835 7.9882812,12.019531 7.584336,13.120712 7.337241,14.214054 7.2460938,15.298828 H 15.298828 V 8.6914062 Z" /></svg>