<?xml version="1.0" encoding="UTF-8"?>
<svg xmlns="http://www.w3.org/2000/svg"
     height="18"
     width="18"
     viewBox="0 0 18 18">
    <g style="fill:#b3b3b3"
       transform="matrix(0.1166657,-0.04043195,0.04043195,0.1166657,-0.65148397,3.6782542)">
        <path style="clip-rule:evenodd;fill:#b3b3b3;fill-rule:evenodd"
              d="M 94.62,2 C 93.16,0.64 91.48,-0.09 89.6,0.01 c -1.88,0 -3.56,0.73 -4.92,2.2 l -11.09,11.51 31.07,30.03 11.19,-11.72 c 1.36,-1.36 1.88,-3.14 1.88,-5.02 0,-1.88 -0.73,-3.66 -2.09,-4.92 z M 41.44,109.58 c -4.08,1.36 -8.26,2.62 -12.35,3.98 -4.08,1.36 -8.16,2.72 -12.35,4.08 -9.73,3.14 -15.07,4.92 -16.22,5.23 -1.15,0.31 -0.42,-4.18 1.99,-13.6 L 10.25,79.66 10.89,79 41.45,109.56 Z M 22.2,67.25 65.19,22.43 96.26,52.35 52.75,97.8 Z"
        />
    </g>
</svg>