<?xml version="1.0" encoding="UTF-8"?>
<svg height="16" viewBox="0 0 16 16" width="16" xmlns="http://www.w3.org/2000/svg">
 <g aria-label="©" transform="matrix(3.7796 0 0 3.7796 4.5993e-6 4.8261e-6)">
  <path d="m2.1166 0.26458q0.37914 0 0.70591 0.13719 0.32926 0.13719 0.60114 0.40908 0.27189 0.27189 0.40658 0.59865 0.1347 0.32676 0.1347 0.7109 0 0.37914-0.1347 0.70591-0.1347 0.32427-0.40658 0.59615-0.27189 0.27189-0.60114 0.40908-0.32676 0.13719-0.70591 0.13719-0.37914 0-0.7084-0.13719-0.32676-0.13719-0.59865-0.40908-0.27189-0.27189-0.40658-0.59615-0.1347-0.32676-0.1347-0.70591 0-0.38413 0.1347-0.7109 0.1347-0.32676 0.40658-0.59865 0.27189-0.27189 0.59865-0.40908 0.32926-0.13719 0.7084-0.13719zm0 0.25692q-0.32676 0-0.60863 0.11724-0.28186 0.11724-0.51633 0.35171-0.23447 0.23447-0.3542 0.52132-0.11973 0.28436-0.11973 0.60863 0 0.32177 0.11973 0.60613 0.11973 0.28186 0.3542 0.51633 0.23447 0.23447 0.51633 0.3542 0.28186 0.11724 0.60863 0.11724 0.32926 0 0.61112-0.11724 0.28436-0.11973 0.51883-0.3542 0.23198-0.23198 0.34672-0.51384 0.11724-0.28186 0.11724-0.60863 0-0.33175-0.11724-0.61362-0.11724-0.28436-0.34672-0.51633-0.23447-0.23447-0.51883-0.35171-0.28186-0.11724-0.61112-0.11724zm0.74582 0.61112v0.32177q-0.16463-0.082314-0.32676-0.12222-0.16213-0.03991-0.32676-0.03991-0.37166 0-0.58119 0.2195-0.20703 0.21701-0.20703 0.60863 0 0.3966 0.21202 0.61362 0.21452 0.21701 0.60114 0.21701 0.15964 0 0.3118-0.037415 0.15216-0.03991 0.31678-0.12472v0.31678q-0.16712 0.072337-0.33923 0.10726-0.16962 0.034921-0.34422 0.034921-0.53878 0-0.85307-0.30431-0.3118-0.30431-0.3118-0.82314 0-0.52132 0.3118-0.82314 0.31429-0.30182 0.85307-0.30182 0.18209 0 0.35171 0.034921 0.16962 0.034921 0.33175 0.10227z"
        stroke-width=".12771"/>
 </g>
</svg>
