<?xml version="1.0" encoding="UTF-8"?>
<svg data-name="Layer 1" height="16" viewBox="0 0 16 16" width="16" xmlns="http://www.w3.org/2000/svg">
    <defs>
        <style>.cls-1 {
            fill-rule: evenodd;
        }</style>
    </defs>
    <title>road-map</title>
    <path class="cls-1"
          d="m3.0585 11.894a3.9385 3.9385 0 0 1-0.86423 0.71585 0.12104 0.12104 0 0 1-0.13927 0 4.8782 4.8782 0 0 1-1.2039-1.0699 3.8253 3.8253 0 0 1-0.80957-1.7467 2.3259 2.3259 0 0 1 0.29025-1.6347 2.0174 2.0174 0 0 1 0.45424-0.49589 2.1853 2.1853 0 0 1 1.3653-0.51151 1.9289 1.9289 0 0 1 1.3016 0.53233 1.8599 1.8599 0 0 1 0.34751 0.423c0.31888 0.52062 0.39047 1.1935 0.24729 1.8729a4.1064 4.1064 0 0 1-0.98918 1.9081zm-0.9202 1.3966a1.2872 1.2872 0 0 1 1.1961 0.80826 0.42561 0.42561 0 0 1 0.070284 0h1.0334a0.52062 0.52062 0 0 1 0 1.0334h-1.0334a0.45294 0.45294 0 0 1-0.095013-0.0091 1.2885 1.2885 0 1 1-1.1714-1.8222zm11.855-7.1026a1.2898 1.2898 0 1 1-1.1818 1.8053h-1.6126a0.52062 0.52062 0 1 1 0-1.0321h1.6126a1.2885 1.2885 0 0 1 1.1818-0.77312zm-4.0062 4.3394a0.52062 0.52062 0 1 0 0 1.0334h1.243a0.52062 0.52062 0 1 0 0-1.0334zm-0.79004-2.5224a0.52062 0.52062 0 0 0-0.13666-1.0243 2.2868 2.2868 0 0 0-1.1987 0.54014 0.52062 0.52062 0 0 0 0.45034 0.89547 0.53494 0.53494 0 0 0 0.22647-0.11454 1.256 1.256 0 0 1 0.65859-0.29675zm-1.0412 1.6282a0.52062 0.52062 0 0 0-0.99178 0.30717l0.023428 0.070284a2.3064 2.3064 0 0 0 0.70935 1.0204 0.52062 0.52062 0 0 0 0.65859-0.79655 1.2794 1.2794 0 0 1-0.40478-0.60132zm-1.6517 4.4604a0.52062 0.52062 0 0 0 0 1.0334h1.0334a0.52062 0.52062 0 1 0 0-1.0334zm3.1003 0a0.52062 0.52062 0 0 0 0 1.0334h1.0334a0.52062 0.52062 0 1 0 0-1.0334zm2.935-0.05727a0.52062 0.52062 0 0 0-0.01562 0.97877 0.51021 0.51021 0 0 0 0.32929 0 2.2959 2.2959 0 0 0 1.0868-0.73798 0.52062 0.52062 0 1 0-0.80045-0.65078l-0.02603 0.02994a1.2768 1.2768 0 0 1-0.57398 0.37615zm0.7523-1.7805a0.52062 0.52062 0 0 0 0.91109-0.47897 2.3311 2.3311 0 0 0-0.91109-0.94623 0.52062 0.52062 0 1 0-0.51281 0.89677 1.2924 1.2924 0 0 1 0.5024 0.52843zm1.6491-7.3954a3.9893 3.9893 0 0 1-0.86553 0.71585 0.13016 0.13016 0 0 1-0.13927 0 4.8665 4.8665 0 0 1-1.2026-1.0738 3.8318 3.8318 0 0 1-0.80957-1.7467 2.3181 2.3181 0 0 1 0.29025-1.6308 1.994 1.994 0 0 1 0.44773-0.49719 2.1775 2.1775 0 0 1 1.3718-0.505 2.0031 2.0031 0 0 1 1.6491 0.95404c0.31888 0.52062 0.39046 1.1948 0.2473 1.8729a4.1155 4.1155 0 0 1-0.98918 1.9094zm-0.99829-3.6782a1.023 1.023 0 1 1-1.023 1.023 1.0217 1.0217 0 0 1 1.023-1.023zm-11.882 7.0284a1.023 1.023 0 1 1-1.023 1.023 1.0217 1.0217 0 0 1 1.023-1.023z"
          stroke-width=".13016"/>
</svg>
