<?xml version="1.0" encoding="UTF-8"?>
<svg height="16" viewBox="0 0 16 16" width="16" xmlns="http://www.w3.org/2000/svg">
    <g stroke-width="7.6803" transform="matrix(-.13021 0 0 .1302 16 0)">
        <path d="m0.92 32.82 31.9-31.9c0.62-0.62 1.42-0.92 2.23-0.92 0.8 0 1.61 0.3 2.22 0.92l84.69 84.69c0.61 0.61 0.92 1.42 0.92 2.23 0 0.8-0.31 1.6-0.92 2.21l-0.01 0.01 0.01 0.01-31.9 31.9c-0.62 0.62-1.42 0.92-2.23 0.92-0.8 0-1.61-0.3-2.23-0.92l-84.68-84.7c-0.62-0.62-0.92-1.43-0.92-2.22 0-0.81 0.3-1.61 0.92-2.23zm104.4 44.33-14.48 14.48c-1.13 1.13-2.84 1.26-3.81 0.29s-0.84-2.68 0.29-3.81l14.48-14.48-11.68-11.69-6.86 6.85c-1.13 1.13-2.84 1.26-3.81 0.29s-0.84-2.68 0.29-3.81l6.86-6.86-10.72-10.7-14.48 14.48c-1.13 1.13-2.84 1.26-3.81 0.29s-0.84-2.68 0.29-3.81l14.48-14.48-11.27-11.28-6.86 6.85c-1.13 1.13-2.84 1.26-3.81 0.29s-0.84-2.68 0.29-3.81l6.86-6.86-11.14-11.12-14.48 14.48c-1.13 1.13-2.83 1.25-3.8 0.29-0.97-0.97-0.84-2.67 0.29-3.8l14.48-14.48-7.87-7.87-28.18 28.17 80.96 80.96 28.17-28.17c-13.2-13.22 2.53 2.52-10.68-10.69z"
              stroke-width="7.6803"/>
    </g>
</svg>
