<?xml version="1.0" encoding="UTF-8"?>
<svg height="18" viewBox="0 0 18 18" width="18" xmlns="http://www.w3.org/2000/svg">
 <circle cx="9" cy="9" fill="#e57e00" r="8.9441"/>
 <path d="m8.75 10.919h-0.3306q-0.016126-0.89504 0.080634-1.3385 0.10482-0.44349 0.52412-1.2176 0.42736-0.78215 0.55637-1.2498 0.13708-0.47574 0.13708-1.1692 0-1.0724-0.4193-1.5804-0.4193-0.50799-0.9918-0.50799-0.43542 0-0.73377 0.23384-0.22577 0.17739-0.22577 0.37092 0 0.12901 0.1532 0.40317 0.34673 0.62088 0.34673 1.0563 0 0.39511-0.27416 0.6612-0.26609 0.26609-0.66926 0.26609-0.45155 0-0.75796-0.31447-0.30641-0.32254-0.30641-0.84666 0-0.95148 0.82247-1.6691 0.82247-0.71764 2.2981-0.71764 1.5643 0 2.3787 0.7499 0.82247 0.74183 0.82247 1.7981 0 0.76602-0.4193 1.4192-0.4193 0.64507-1.6207 1.4353-0.80634 0.53218-1.0644 0.95148-0.24997 0.41123-0.30641 1.266zm-0.088697 1.1773q0.54025 0 0.91923 0.37898 0.37898 0.37898 0.37898 0.91923 0 0.54025-0.37898 0.92729-0.37898 0.37898-0.91923 0.37898-0.54025 0-0.91923-0.37898-0.37898-0.38704-0.37898-0.92729 0-0.54025 0.37898-0.91923 0.37898-0.37898 0.91923-0.37898z"
       fill="#fff"/>
</svg>
