<?xml version="1.0" encoding="UTF-8"?>
<svg height="18" viewBox="0 0 18 18" width="18" xmlns="http://www.w3.org/2000/svg">
 <circle cx="9" cy="9" fill="#808080" r="8.9441"/>
 <path d="m9.8772 3.6744c-0.13461-0.059526-0.26934-0.069826-0.39797-0.017443-0.13104 0.045412-0.2305 0.13688-0.28978 0.27219l-0.49495 1.0701 2.891 1.3426 0.49685-1.0872c0.06194-0.12764 0.05519-0.26427 0.0098-0.39531-0.045437-0.13104-0.13932-0.23747-0.26454-0.29244zm-1.108 8.783c-0.25153 0.19335-0.51244 0.38214-0.76466 0.57573-0.25153 0.19335-0.50305 0.3867-0.76225 0.5827-0.60234 0.45389-0.93154 0.70695-1.0042 0.75634-0.072667 0.04938-0.13024-0.2812-0.18981-0.996l-0.17576-2.2508 0.028666-0.061464 2.8682 1.3919zm-2.3635-2.4857 1.9138-4.1624 2.8883 1.3349-1.9348 4.2189z"
       fill="#fff"/>
</svg>
