<?xml version="1.0" encoding="UTF-8"?>
<svg height="18" viewBox="0 0 18 18" width="18" xmlns="http://www.w3.org/2000/svg">
 <circle cx="9" cy="9" fill="#d40000" r="8.9441"/>
 <path d="m9.1354 11.285h-0.27087l-0.62727-5.7738q-0.042769-0.37779-0.042769-0.56312 0-0.44907 0.23523-0.71994 0.24235-0.27087 0.57738-0.27087 0.33502 0 0.56312 0.27087 0.23523 0.27087 0.23523 0.80547 0 0.17107-0.028509 0.47758zm-0.14256 1.1833q0.32789 0 0.55599 0.23523 0.23523 0.2281 0.23523 0.54886 0 0.32789-0.23523 0.56312-0.2281 0.2281-0.55599 0.2281-0.32789 0-0.56312-0.2281-0.2281-0.23523-0.2281-0.56312 0-0.32076 0.2281-0.54886 0.23523-0.23523 0.56312-0.23523z"
       fill="#fff"/>
</svg>
