<?xml version="1.0" encoding="UTF-8"?>
<svg height="18" viewBox="0 0 18 18" width="18" xmlns="http://www.w3.org/2000/svg">
 <circle cx="9" cy="9" fill="#0000c9" r="9"/>
 <path d="m11.389 12.664c0.013878-1.4206-0.49705-2.3702-1.1934-2.8554-0.26991-0.188-0.56616-0.30647-0.86798-0.35547-0.30304-0.049004-0.61401-0.029188-0.9119 0.059162-0.98272 0.29202-1.8212 1.3403-1.8038 3.1517zm-6.1066 0h0.68448c-0.018314-1.9705 0.87069-3.193 1.9707-3.6626-1.1008-0.46965-1.9902-1.6937-1.9707-3.6664l-0.68448 7.15e-5c-0.035841 0-0.065028-0.032908-0.065028-0.073398v-0.58404c0-0.040348 0.029188-0.073255 0.065028-0.073255h7.4358c0.03563 0 0.06503 0.032908 0.06503 0.073255v0.58404c0 0.040348-0.0294 0.073327-0.06503 0.073327h-0.68462c0.0161 1.6606-0.61387 2.7926-1.4698 3.3892-0.15653 0.10888-0.32507 0.2026-0.50034 0.27707 0.17506 0.074972 0.34396 0.1684 0.5002 0.2775 0.85524 0.59606 1.4849 1.7269 1.4698 3.3853l0.68476 7.1e-5c0.03563 0 0.06503 0.03312 0.06503 0.07347v0.5839c0 0.04035-0.0294 0.07347-0.06503 0.07347h-7.4358c-0.035841 0-0.065028-0.03312-0.065028-0.07347v-0.58382c0-0.04049 0.029188-0.07361 0.065028-0.07361zm6.1066-7.329h-4.7769c-0.0186 1.8138 0.82019 2.8633 1.8036 3.1555 0.29781 0.088421 0.60886 0.10824 0.9119 0.059091 0.30182-0.048861 0.59799-0.16726 0.86798-0.35526 0.69693-0.48553 1.2083-1.4364 1.1934-2.8593z"
       fill="#fff" stroke="#fff" stroke-width=".6"/>
</svg>
