<?xml version="1.0" encoding="UTF-8"?>
<svg xmlns="http://www.w3.org/2000/svg"
     viewBox="0 0 22 22"
     width="22"
     height="22">
    <g style="fill:#ffffff"
       transform="matrix(0.12207522,0,0,0.1223012,3.5000037,3.5000012)">
        <path style="clip-rule:evenodd;fill:#ffffff;fill-rule:evenodd"
              d="m 108.993,47.079 c 7.683,-0.059 13.898,6.12 13.882,13.805 -0.018,7.683 -6.26,13.959 -13.942,14.019 l -33.693,0.235 -0.235,33.73 c -0.063,7.619 -6.338,13.789 -14.014,13.78 -7.678,-0.01 -13.848,-6.197 -13.785,-13.818 L 47.439,75.333 13.881,75.568 C 6.2,75.628 -0.016,69.448 0,61.764 0.018,54.081 6.261,47.805 13.943,47.746 L 47.635,47.51 47.871,13.78 C 47.935,6.161 54.209,-0.009 61.885,0 69.563,0.009 75.733,6.197 75.669,13.818 l -0.233,33.497 z"/>
    </g>
</svg>
