<?xml version="1.0" encoding="UTF-8"?>
<svg xmlns="http://www.w3.org/2000/svg"
     viewBox="0 0 22 22"
     width="22"
     height="22">
    <g style="fill:#ffffff"
       transform="matrix(0.12939367,0,0,0.13834748,3.916667,2.5)">
        <path style="clip-rule:evenodd;fill:#ffffff;fill-rule:evenodd"
              d="M 2.347,9.633 H 40.644 V 3.76 C 40.644,1.692 42.333,0 44.404,0 h 21.144 c 2.07,0 3.76,1.691 3.76,3.76 v 5.874 h 37.83 c 1.293,0 2.347,1.057 2.347,2.349 V 23.497 H 0 V 11.982 C 0,10.69 1.055,9.633 2.347,9.633 Z M 8.69,29.605 h 92.921 c 1.937,0 3.696,1.599 3.521,3.524 l -7.864,86.229 c -0.174,1.926 -1.59,3.521 -3.523,3.521 h -77.3 c -1.934,0 -3.352,-1.592 -3.524,-3.521 L 5.166,33.129 C 4.994,31.197 6.751,29.605 8.69,29.605 Z m 60.387,13.393 h 9.866 v 65.314 h -9.866 z m -39.005,0 h 9.867 v 65.314 h -9.867 z m 19.5,0 h 9.869 v 65.314 h -9.869 z"/>
    </g>
</svg>
