<?xml version="1.0" encoding="UTF-8"?>
<svg xmlns="http://www.w3.org/2000/svg"
     viewBox="0 0 22 22"
     width="22"
     height="22">
    <path style="fill:#ffffff;stroke-width:0.139644"
          d="m 14.201285,9.087582 a 1.0666455,1.0867699 0 1 1 1.494135,1.550515 l -4.052147,4.070801 a 1.0680291,1.0881795 0 0 1 -1.4969,0 L 6.1523313,10.690249 A 1.0668243,1.0869521 0 1 1 7.6478485,9.1397341 l 2.198313,2.2200579 0.022138,-7.8188363 a 1.0680291,1.0881795 0 0 1 2.1346755,0.018322 l -0.02075,7.7525843 z m -11.7012814,9.370745 0.013836,-4.254044 a 1.0680291,1.0881795 0 1 1 2.1346754,0.01974 l -0.00968,3.101039 q 6.363903,0.01275 12.715355,0 l 0.0097,-3.117945 a 1.0680735,1.0882248 0 1 1 2.136059,0.01974 l -0.01383,4.228675 h -0.01245 a 1.0666455,1.0867699 0 0 1 -1.056949,1.037437 q -7.433316,0.01407 -14.8555649,0 a 1.0652621,1.0853604 0 0 1 -1.061146,-1.034642 z"/>
</svg>
