<?xml version="1.0" encoding="UTF-8"?>
<svg height="22" viewBox="0 0 22 22" width="22" xmlns="http://www.w3.org/2000/svg">
 <g fill="#fff" transform="matrix(.1465 0 0 .1465 2.8651 2)">
  <path class="st0"
        d="m97.67 20.81 0.01 0.02c3.7 0.01 7.04 1.51 9.46 3.93 2.4 2.41 3.9 5.74 3.9 9.42h0.02v75.31h-0.02c-0.01 3.68-1.51 7.03-3.93 9.46-2.41 2.4-5.74 3.9-9.42 3.9v0.02h-59.22v-0.02c-3.69-0.01-7.04-1.5-9.46-3.93-2.4-2.41-3.9-5.74-3.91-9.42v-75.3-0.01h0.02c0.01-3.69 1.52-7.04 3.94-9.46 2.41-2.4 5.73-3.9 9.42-3.91v-0.02h0.02c19.72 0.01 39.45 0.01 59.17 0.01zm-97.65 54.57-0.02-61.99v-0.01h0.02c0.01-3.69 1.52-7.04 3.93-9.46 2.41-2.4 5.74-3.9 9.42-3.91v-0.01h59.21c7.69 0 8.9 9.96 0.01 10.16h-59.21v-0.02c-0.88 0-1.68 0.37-2.27 0.97-0.59 0.58-0.96 1.4-0.96 2.27h0.02v3.18 58.81c0 8.26-10.15 8.72-10.15 0.01zm100.89 34.11v-75.31h0.02c0-0.87-0.37-1.68-0.97-2.27-0.59-0.58-1.4-0.96-2.28-0.96v0.02h-59.22v-0.02c-0.88 0-1.68 0.38-2.27 0.97-0.59 0.58-0.96 1.4-0.96 2.27h0.02v75.31h-0.02c0 0.88 0.38 1.68 0.97 2.27s1.4 0.96 2.27 0.96v-0.02h59.22v0.02c0.87 0 1.68-0.38 2.27-0.97 0.59-0.58 0.96-1.4 0.96-2.27z"
        fill="#fff"/>
 </g>
</svg>
