<?xml version="1.0" encoding="UTF-8"?>
<svg height="16" viewBox="0 0 16 16" width="16" xmlns="http://www.w3.org/2000/svg">
    <g color="#000000" transform="rotate(-90 -138.38 154.76)">
        <g transform="matrix(.54139 0 0 .54139 3.6796 135.94)">
            <path d="m14.461 308.34h-2.5464v-1.6204q-0.34043 0.23149-0.92596 0.65362-0.57192 0.40851-1.1166 0.65362-0.64 0.31318-1.4706 0.51744-0.83064 0.21787-1.9472 0.21787-2.0562 0-3.486-1.3617t-1.4298-3.4724q0-1.7294 0.73532-2.7915 0.74894-1.0758 2.1243-1.6885 1.3889-0.61278 3.3362-0.83064 1.9472-0.21789 4.1804-0.32681v-0.3949q0-0.8715-0.31319-1.4434-0.29958-0.57192-0.87149-0.89873-0.54468-0.31319-1.3072-0.42212-0.76256-0.1089-1.5932-0.1089-1.0077 0-2.2468 0.27234-1.2392 0.25873-2.56 0.76256h-0.13617v-2.6009q0.74894-0.20425 2.1651-0.44937 1.4162-0.2451 2.7915-0.2451 1.6068 0 2.7915 0.27234 1.1983 0.25873 2.0698 0.89872 0.85788 0.62639 1.3072 1.6204 0.44936 0.99404 0.44936 2.4647zm-2.5464-3.7447v-4.2349q-1.1711 0.0681-2.7643 0.20426-1.5796 0.13618-2.5055 0.39489-1.103 0.3132-1.7838 0.98043-0.68085 0.65362-0.68085 1.8111 0 1.3072 0.78979 1.9745 0.78979 0.65362 2.4102 0.65362 1.3481 0 2.4647-0.51744 1.1166-0.53107 2.0698-1.2664z"/>
        </g>
        <path d="m11.509 303.57a0.50005 0.50005 0 0 0-0.34961 0.85938l1.6367 1.6348a0.50005 0.50005 0 1 0 0.70703-0.70703l-1.6367-1.6348a0.50005 0.50005 0 0 0-0.35742-0.15235zm1.6309 1.6348a0.50005 0.50005 0 0 0-0.34375 0.15234l-1.6367 1.6348a0.50005 0.50005 0 1 0 0.70703 0.70703l1.6367-1.6348a0.50005 0.50005 0 0 0-0.36328-0.85937zm-10.289 6e-3a0.50005 0.50005 0 1 0 0 1h10.299a0.50005 0.50005 0 1 0 0-1z"/>
    </g>
</svg>
