<?xml version="1.0" encoding="UTF-8" standalone="no"?>
<svg
   xmlns:dc="http://purl.org/dc/elements/1.1/"
   xmlns:cc="http://creativecommons.org/ns#"
   xmlns:rdf="http://www.w3.org/1999/02/22-rdf-syntax-ns#"
   xmlns:svg="http://www.w3.org/2000/svg"
   xmlns="http://www.w3.org/2000/svg"
   version="1.1"
   id="Layer_1"
   x="0px"
   y="0px"
   viewBox="0 0 32 32"
   xml:space="preserve"
   width="32"
   height="32"><metadata
     id="metadata11"><rdf:RDF><cc:Work
         rdf:about=""><dc:format>image/svg+xml</dc:format><dc:type
           rdf:resource="http://purl.org/dc/dcmitype/StillImage" /><dc:title></dc:title></cc:Work></rdf:RDF></metadata><defs
     id="defs9"><filter
       style="color-interpolation-filters:sRGB;"
       id="filter1043"><feOffset
         dy="3"
         dx="3"
         id="feOffset1033" /><feGaussianBlur
         stdDeviation="3"
         result="blur"
         id="feGaussianBlur1035" /><feFlood
         flood-color="rgb(0,0,0)"
         flood-opacity="1"
         result="flood"
         id="feFlood1037" /><feComposite
         in="flood"
         in2="SourceGraphic"
         operator="in"
         result="composite"
         id="feComposite1039" /><feBlend
         in="blur"
         in2="composite"
         mode="normal"
         id="feBlend1041" /></filter><filter
       style="color-interpolation-filters:sRGB;"
       id="filter1057"><feOffset
         dy="3"
         dx="3"
         id="feOffset1047" /><feGaussianBlur
         stdDeviation="3"
         result="blur"
         id="feGaussianBlur1049" /><feFlood
         flood-color="rgb(0,0,0)"
         flood-opacity="1"
         result="flood"
         id="feFlood1051" /><feComposite
         in="flood"
         in2="SourceGraphic"
         operator="in"
         result="composite"
         id="feComposite1053" /><feBlend
         in="blur"
         in2="composite"
         mode="normal"
         id="feBlend1055" /></filter></defs><style
     id="style929"
     type="text/css">.st0{fill-rule:evenodd;clip-rule:evenodd;}</style><path
     id="path879"
     style="fill:#ffffff;stroke:#ffffff;stroke-width:0.4;stroke-miterlimit:4;stroke-dasharray:none"
     d="m 28.506974,23.308284 c 0.0474,0 0.09349,0.005 0.138804,0.01382 0.298444,-0.520317 0.570584,-1.066415 0.81642,-1.636992 0.0046,-0.01146 0.0096,-0.0224 0.0154,-0.03333 0.369268,-0.871112 0.647918,-1.775807 0.835682,-2.713315 0.14558,-0.727349 0.23542,-1.473189 0.269534,-2.237258 h -4.399315 c -0.07995,2.232823 -0.746626,4.434924 -1.989355,6.607077 z m -0.766939,1.402615 h -4.430801 c -1.344813,1.948192 -3.156561,3.87243 -5.426649,5.772704 0.355995,-0.04428 0.708084,-0.10104 1.056007,-0.17056 0.949494,-0.18984 1.865654,-0.47318 2.747179,-0.850006 l -5.21e-4,-0.001 c 0.896108,-0.385426 1.730757,-0.836472 2.502384,-1.353924 0.773189,-0.518754 1.489868,-1.108082 2.148472,-1.769546 l 0.0026,-0.0026 v 0 c 0.509648,-0.507611 0.976582,-1.049541 1.401329,-1.625068 z M 14.117421,30.483343 C 11.847592,28.583329 10.035845,26.659091 8.690771,24.710899 H 4.260752 c 0.424746,0.575527 0.891421,1.117457 1.400804,1.625014 l 0.0026,0.003 v -2.6e-4 c 0.658865,0.661464 1.375543,1.250792 2.148472,1.769546 0.771366,0.517452 1.606015,0.968498 2.502384,1.353918 0.0112,0.005 0.0224,0.0098 0.03333,0.0154 0.871107,0.369534 1.775809,0.647922 2.713585,0.835682 0.347922,0.06954 0.69949,0.1263 1.055486,0.17032 z M 3.346935,23.308284 H 7.805861 C 6.563393,21.136131 5.896456,18.93403 5.817027,16.701199 H 1.417998 c 0.03385,0.764069 0.1237,1.509648 0.269275,2.236997 0.189846,0.949487 0.473446,1.865641 0.850014,2.747158 l 10e-4,-2.6e-4 c 0.243494,0.565629 0.512769,1.10704 0.808607,1.62319 z M 1.417998,15.298844 H 5.844371 C 6.007135,13.111326 6.732927,10.908964 8.033729,8.691759 H 3.346935 c -0.295838,0.51615 -0.565113,1.05756 -0.808606,1.62345 -0.005,0.0112 -0.01016,0.0224 -0.01538,0.03307 -0.369537,0.871362 -0.647927,1.776057 -0.835691,2.713564 -0.145574,0.72735 -0.23542,1.47319 -0.269275,2.236998 z M 4.260752,7.289403 H 8.932181 C 10.262411,5.372461 12.021293,3.44432 14.21612,1.504981 13.826531,1.550551 13.441889,1.611233 13.062195,1.687275 12.11244,1.877121 11.19654,2.160717 10.315016,2.537282 l 2.6e-4,7.81e-4 C 9.418908,2.923744 8.584259,3.374528 7.812892,3.892241 7.039963,4.410995 6.323285,5.000323 5.664421,5.661526 l -0.0029,0.0026 v 0 C 5.152133,6.171936 4.685458,6.713608 4.260712,7.289393 Z M 17.783885,1.504721 c 2.194827,1.939338 3.95371,3.867479 5.2842,5.784422 h 4.671689 C 27.315028,6.713618 26.848093,6.171686 26.33845,5.66413 l -0.0026,-0.0026 v 0 C 25.677261,5.000072 24.960583,4.411005 24.187393,3.89225 23.415767,3.374538 22.581118,2.923753 21.68501,2.538073 21.67381,2.533373 21.66261,2.528173 21.65194,2.522713 20.780572,2.153434 19.87587,1.874786 18.938355,1.687284 18.558661,1.611244 18.173499,1.550564 17.783909,1.50473 Z m 10.869446,7.187038 h -4.687055 c 1.301063,2.217205 2.026856,4.419567 2.189619,6.607085 h 4.426633 c -0.03411,-0.764069 -0.12422,-1.509648 -0.269536,-2.236998 -0.190106,-0.949486 -0.473444,-1.86564 -0.850012,-2.747158 l -0.001,5.21e-4 c -0.243536,-0.56589 -0.51255,-1.1073 -0.808649,-1.62345 z M 12.788232,0.312003 C 13.827833,0.103928 14.898683,2.1e-5 16.000263,2.1e-5 c 1.10158,0 2.17217,0.103906 3.21177,0.311982 1.024496,0.205209 2.020345,0.513025 2.987809,0.923705 0.01328,0.0047 0.02604,0.0096 0.03854,0.0151 0.964338,0.415108 1.874248,0.90756 2.726866,1.480221 0.851055,0.570838 1.638308,1.217978 2.360976,1.943245 0.725272,0.722662 1.372417,1.510168 1.943,2.360696 0.572146,0.852872 1.06512,1.762515 1.480232,2.727366 l -10e-4,2.6e-4 10e-4,0.0023 c 0.418498,0.978654 0.731522,1.986475 0.938818,3.023202 0.208076,1.039592 0.311724,2.110434 0.311724,3.212006 0,1.101571 -0.10364,2.172674 -0.311724,3.212265 -0.20495,1.023967 -0.51329,2.020329 -0.923712,2.987525 -0.0046,0.01304 -0.0096,0.02578 -0.0154,0.03828 -0.415078,0.964859 -0.907794,1.874241 -1.480198,2.727113 -0.570583,0.850788 -1.217728,1.638034 -1.943001,2.360696 -0.722667,0.725266 -1.51018,1.372668 -2.360975,1.943246 -0.852357,0.5724 -1.762528,1.065372 -2.726866,1.480218 l -5.21e-4,-0.001 -0.0026,0.001 c -0.978662,0.418234 -1.986751,0.731258 -3.023226,0.93855 -1.0396,0.208078 -2.110451,0.311982 -3.21177,0.311982 -1.10132,0 -2.172431,-0.10392 -3.212031,-0.311982 -1.024235,-0.20495 -2.020345,-0.513022 -2.988069,-0.923442 -0.01276,-0.005 -0.02552,-0.0096 -0.03828,-0.0154 C 8.796758,30.334307 7.887368,29.841595 7.03449,29.268935 6.183955,28.698359 5.396443,28.050957 4.673775,27.325691 3.948503,26.603029 3.301357,25.815524 2.730775,24.964994 2.15837,24.112384 1.665654,23.202741 1.250543,22.237889 l 0.001,-5.2e-4 -0.001,-0.0023 C 0.832307,21.256412 0.519281,20.248591 0.311986,19.211864 0.104171,18.172532 2e-6,17.10169 2e-6,15.999858 c 0,-1.101311 0.104168,-2.172413 0.312245,-3.212005 0.20495,-1.024227 0.513029,-2.020329 0.923452,-2.987785 0.0047,-0.01276 0.0096,-0.02578 0.0151,-0.03828 C 1.66591,8.796897 2.158365,7.887254 2.731031,7.034382 3.301873,6.183854 3.949019,5.396348 4.674031,4.673686 5.396699,3.948419 6.184211,3.301279 7.034746,2.730441 7.887624,2.15804 8.797274,1.665328 9.761873,1.25022 l 2.6e-4,10e-4 0.0023,-10e-4 C 10.743366,0.832542 11.751455,0.519519 12.78819,0.311965 Z m 3.913344,2.101579 v 4.875821 h 4.642262 C 20.124027,5.681057 18.57843,4.056044 16.701576,2.413582 Z m 0,6.278177 v 6.607085 h 8.052734 c -0.182035,-2.16981 -0.986735,-4.371911 -2.426602,-6.607085 z m 0,8.00944 v 6.607085 h 5.862074 c 1.387522,-2.186476 2.132586,-4.389098 2.22165,-6.607085 z m 0,8.0097 v 4.935456 c 1.990918,-1.63621 3.620371,-3.281534 4.88185,-4.935456 z m -1.402626,4.935978 v -4.935978 h -4.88211 c 1.261218,1.653922 2.890672,3.299506 4.88211,4.935978 z m 0,-6.338593 V 16.701199 H 7.215227 c 0.0888,2.218247 0.833607,4.420609 2.22165,6.607085 z m 0,-8.00944 V 8.691759 H 9.672818 c -1.439867,2.235174 -2.244567,4.437536 -2.426862,6.607085 z m 0,-8.009441 V 2.413062 C 13.422097,4.055523 11.876239,5.681057 10.656428,7.289403 Z M 9.671874,8.691426 C 8.951941,9.809013 8.392226,10.91837 7.98828,12.019551 7.584335,13.120732 7.33724,14.214074 7.246093,15.298848 h 8.052734 V 8.691426 Z" /></svg>
